<mxfile host="app.diagrams.net" modified="2022-03-29T15:01:32.945Z" agent="5.0 (Windows NT 10.0; Win64; x64) AppleWebKit/537.36 (KHTML, like Gecko) Chrome/99.0.4844.82 Safari/537.36" etag="Ir-a1ho4flvxnScAAjls" version="17.2.4" type="github">
  <diagram id="R2lEEEUBdFMjLlhIrx00" name="Page-1">
    <mxGraphModel dx="782" dy="379" grid="1" gridSize="10" guides="1" tooltips="1" connect="1" arrows="1" fold="1" page="1" pageScale="1" pageWidth="850" pageHeight="1100" math="0" shadow="0" extFonts="Permanent Marker^https://fonts.googleapis.com/css?family=Permanent+Marker">
      <root>
        <mxCell id="0" />
        <mxCell id="1" parent="0" />
        <mxCell id="P4FuP0LSuR6LacXq8Uvd-1" value="Inventory.Get-VMHost.csv" style="rounded=1;whiteSpace=wrap;html=1;" vertex="1" parent="1">
          <mxGeometry x="60" y="160" width="150" height="30" as="geometry" />
        </mxCell>
        <mxCell id="P4FuP0LSuR6LacXq8Uvd-2" value="" style="endArrow=classic;html=1;rounded=0;exitX=1;exitY=0.5;exitDx=0;exitDy=0;" edge="1" parent="1" source="P4FuP0LSuR6LacXq8Uvd-1">
          <mxGeometry width="50" height="50" relative="1" as="geometry">
            <mxPoint x="230" y="220" as="sourcePoint" />
            <mxPoint x="280" y="175" as="targetPoint" />
          </mxGeometry>
        </mxCell>
        <mxCell id="P4FuP0LSuR6LacXq8Uvd-8" value="ucc_vcenter.vcenter_vmhost" style="swimlane;childLayout=stackLayout;horizontal=1;startSize=30;horizontalStack=0;rounded=1;fontSize=14;fontStyle=1;strokeWidth=2;resizeParent=0;resizeLast=1;shadow=0;dashed=0;align=center;fillColor=#d5e8d4;strokeColor=#82b366;" vertex="1" parent="1">
          <mxGeometry x="280" y="115" width="210" height="135" as="geometry" />
        </mxCell>
        <mxCell id="P4FuP0LSuR6LacXq8Uvd-9" value="+num_cpu&#xa;+memory_total_b&#xa;+memory_usage_mb&#xa;+host_name&#xa;+host_id&#xa;+host_serial" style="align=left;strokeColor=none;fillColor=none;spacingLeft=4;fontSize=12;verticalAlign=top;resizable=0;rotatable=0;part=1;" vertex="1" parent="P4FuP0LSuR6LacXq8Uvd-8">
          <mxGeometry y="30" width="210" height="105" as="geometry" />
        </mxCell>
        <mxCell id="P4FuP0LSuR6LacXq8Uvd-10" value="" style="endArrow=classic;html=1;rounded=0;entryX=0;entryY=0.5;entryDx=0;entryDy=0;" edge="1" parent="1" target="P4FuP0LSuR6LacXq8Uvd-14">
          <mxGeometry width="50" height="50" relative="1" as="geometry">
            <mxPoint x="490" y="180" as="sourcePoint" />
            <mxPoint x="580" y="179" as="targetPoint" />
          </mxGeometry>
        </mxCell>
        <mxCell id="P4FuP0LSuR6LacXq8Uvd-14" value="uf120_load_host_metrics" style="swimlane;startSize=20;horizontal=1;containerType=tree;newEdgeStyle={&quot;edgeStyle&quot;:&quot;elbowEdgeStyle&quot;,&quot;startArrow&quot;:&quot;none&quot;,&quot;endArrow&quot;:&quot;none&quot;};fillColor=#ffe6cc;strokeColor=#d79b00;" vertex="1" parent="1">
          <mxGeometry x="570" y="20" width="360" height="320" as="geometry" />
        </mxCell>
        <mxCell id="P4FuP0LSuR6LacXq8Uvd-24" value="ucc_vcenter.rpt_host_metrics" style="rounded=1;whiteSpace=wrap;html=1;fillColor=#e1d5e7;strokeColor=#9673a6;" vertex="1" parent="P4FuP0LSuR6LacXq8Uvd-14">
          <mxGeometry x="90" y="40" width="170" height="50" as="geometry" />
        </mxCell>
        <mxCell id="P4FuP0LSuR6LacXq8Uvd-25" value="ucc_vcenter.vcenter_host_metrics" style="swimlane;fillColor=#d5e8d4;strokeColor=#82b366;" vertex="1" parent="P4FuP0LSuR6LacXq8Uvd-14">
          <mxGeometry x="25" y="120" width="310" height="140" as="geometry" />
        </mxCell>
        <mxCell id="P4FuP0LSuR6LacXq8Uvd-27" value="&lt;div&gt;as hm&lt;/div&gt;&lt;div&gt;hm.host_id,&lt;/div&gt;&lt;div&gt;&lt;span&gt;		&lt;/span&gt;hm.host_name,&lt;/div&gt;&lt;div&gt;&lt;span&gt;		&lt;/span&gt;hm.cpu_usage_mhz,&lt;/div&gt;&lt;div&gt;&lt;span&gt;		&lt;/span&gt;hm.mem_consumed_kb/1024.0 as mem_consumed_mb&lt;/div&gt;" style="text;html=1;align=left;verticalAlign=middle;resizable=0;points=[];autosize=1;strokeColor=none;fillColor=none;" vertex="1" parent="P4FuP0LSuR6LacXq8Uvd-25">
          <mxGeometry y="30" width="310" height="80" as="geometry" />
        </mxCell>
        <mxCell id="P4FuP0LSuR6LacXq8Uvd-29" value="" style="endArrow=classic;html=1;rounded=0;entryX=0.5;entryY=1;entryDx=0;entryDy=0;" edge="1" parent="P4FuP0LSuR6LacXq8Uvd-14" target="P4FuP0LSuR6LacXq8Uvd-24">
          <mxGeometry width="50" height="50" relative="1" as="geometry">
            <mxPoint x="175" y="120" as="sourcePoint" />
            <mxPoint x="210" y="150" as="targetPoint" />
          </mxGeometry>
        </mxCell>
        <mxCell id="P4FuP0LSuR6LacXq8Uvd-28" value="" style="endArrow=classic;html=1;rounded=0;exitX=1.019;exitY=0.317;exitDx=0;exitDy=0;exitPerimeter=0;entryX=0;entryY=0.5;entryDx=0;entryDy=0;" edge="1" parent="1" source="P4FuP0LSuR6LacXq8Uvd-9" target="P4FuP0LSuR6LacXq8Uvd-24">
          <mxGeometry width="50" height="50" relative="1" as="geometry">
            <mxPoint x="620" y="200" as="sourcePoint" />
            <mxPoint x="670" y="150" as="targetPoint" />
          </mxGeometry>
        </mxCell>
        <mxCell id="P4FuP0LSuR6LacXq8Uvd-30" value="If Not Standalone" style="edgeLabel;html=1;align=center;verticalAlign=middle;resizable=0;points=[];" vertex="1" connectable="0" parent="P4FuP0LSuR6LacXq8Uvd-28">
          <mxGeometry x="-0.1412" relative="1" as="geometry">
            <mxPoint x="15" y="-8" as="offset" />
          </mxGeometry>
        </mxCell>
        <mxCell id="P4FuP0LSuR6LacXq8Uvd-31" value="uf130_update_rpt_host_metrics_cluster" style="swimlane;startSize=20;horizontal=1;containerType=tree;newEdgeStyle={&quot;edgeStyle&quot;:&quot;elbowEdgeStyle&quot;,&quot;startArrow&quot;:&quot;none&quot;,&quot;endArrow&quot;:&quot;none&quot;};fillColor=#ffe6cc;strokeColor=#d79b00;" vertex="1" parent="1">
          <mxGeometry x="575" y="390" width="350" height="230" as="geometry" />
        </mxCell>
        <mxCell id="P4FuP0LSuR6LacXq8Uvd-32" value="ucc_vcenter.rpt_host_metrics" style="rounded=1;whiteSpace=wrap;html=1;fillColor=#e1d5e7;strokeColor=#9673a6;" vertex="1" parent="P4FuP0LSuR6LacXq8Uvd-31">
          <mxGeometry x="90" y="40" width="170" height="50" as="geometry" />
        </mxCell>
        <mxCell id="P4FuP0LSuR6LacXq8Uvd-33" value="ucc_vcenter.vcenter_cluster" style="swimlane;fillColor=#d5e8d4;strokeColor=#82b366;" vertex="1" parent="P4FuP0LSuR6LacXq8Uvd-31">
          <mxGeometry x="37.5" y="120" width="275" height="90" as="geometry" />
        </mxCell>
        <mxCell id="P4FuP0LSuR6LacXq8Uvd-34" value="cluster_name&lt;br&gt;cluster_id&lt;br&gt;cluster_parent_id" style="text;html=1;align=left;verticalAlign=middle;resizable=0;points=[];autosize=1;strokeColor=none;fillColor=none;" vertex="1" parent="P4FuP0LSuR6LacXq8Uvd-33">
          <mxGeometry y="30" width="110" height="50" as="geometry" />
        </mxCell>
        <mxCell id="P4FuP0LSuR6LacXq8Uvd-35" value="" style="endArrow=classic;html=1;rounded=0;entryX=0.5;entryY=1;entryDx=0;entryDy=0;" edge="1" parent="P4FuP0LSuR6LacXq8Uvd-31" target="P4FuP0LSuR6LacXq8Uvd-32">
          <mxGeometry width="50" height="50" relative="1" as="geometry">
            <mxPoint x="175" y="120" as="sourcePoint" />
            <mxPoint x="210" y="150" as="targetPoint" />
          </mxGeometry>
        </mxCell>
        <mxCell id="P4FuP0LSuR6LacXq8Uvd-36" value="" style="endArrow=classic;html=1;rounded=0;exitX=0.5;exitY=1;exitDx=0;exitDy=0;entryX=0.5;entryY=0;entryDx=0;entryDy=0;" edge="1" parent="1" source="P4FuP0LSuR6LacXq8Uvd-14" target="P4FuP0LSuR6LacXq8Uvd-31">
          <mxGeometry width="50" height="50" relative="1" as="geometry">
            <mxPoint x="620" y="550" as="sourcePoint" />
            <mxPoint x="670" y="500" as="targetPoint" />
          </mxGeometry>
        </mxCell>
        <mxCell id="P4FuP0LSuR6LacXq8Uvd-37" value="uf140_update_rpt_host_metrics_folder" style="swimlane;startSize=20;horizontal=1;containerType=tree;newEdgeStyle={&quot;edgeStyle&quot;:&quot;elbowEdgeStyle&quot;,&quot;startArrow&quot;:&quot;none&quot;,&quot;endArrow&quot;:&quot;none&quot;};fillColor=#ffe6cc;strokeColor=#d79b00;" vertex="1" parent="1">
          <mxGeometry x="580" y="680" width="350" height="230" as="geometry" />
        </mxCell>
        <mxCell id="P4FuP0LSuR6LacXq8Uvd-38" value="ucc_vcenter.rpt_host_metrics" style="rounded=1;whiteSpace=wrap;html=1;fillColor=#e1d5e7;strokeColor=#9673a6;" vertex="1" parent="P4FuP0LSuR6LacXq8Uvd-37">
          <mxGeometry x="90" y="40" width="170" height="50" as="geometry" />
        </mxCell>
        <mxCell id="P4FuP0LSuR6LacXq8Uvd-39" value="ucc_vcenter.vcenter_folder" style="swimlane;fillColor=#d5e8d4;strokeColor=#82b366;" vertex="1" parent="P4FuP0LSuR6LacXq8Uvd-37">
          <mxGeometry x="37.5" y="120" width="275" height="90" as="geometry" />
        </mxCell>
        <mxCell id="P4FuP0LSuR6LacXq8Uvd-40" value="folder_id&lt;br&gt;folder_name&lt;br&gt;folder_parent_id" style="text;html=1;align=left;verticalAlign=middle;resizable=0;points=[];autosize=1;strokeColor=none;fillColor=none;" vertex="1" parent="P4FuP0LSuR6LacXq8Uvd-39">
          <mxGeometry y="30" width="100" height="50" as="geometry" />
        </mxCell>
        <mxCell id="P4FuP0LSuR6LacXq8Uvd-41" value="" style="endArrow=classic;html=1;rounded=0;entryX=0.5;entryY=1;entryDx=0;entryDy=0;" edge="1" parent="P4FuP0LSuR6LacXq8Uvd-37" target="P4FuP0LSuR6LacXq8Uvd-38">
          <mxGeometry width="50" height="50" relative="1" as="geometry">
            <mxPoint x="175" y="120" as="sourcePoint" />
            <mxPoint x="210" y="150" as="targetPoint" />
          </mxGeometry>
        </mxCell>
        <mxCell id="P4FuP0LSuR6LacXq8Uvd-42" value="" style="endArrow=classic;html=1;rounded=0;exitX=0.5;exitY=1;exitDx=0;exitDy=0;" edge="1" parent="1" source="P4FuP0LSuR6LacXq8Uvd-31">
          <mxGeometry width="50" height="50" relative="1" as="geometry">
            <mxPoint x="700" y="680" as="sourcePoint" />
            <mxPoint x="750" y="680" as="targetPoint" />
          </mxGeometry>
        </mxCell>
        <mxCell id="P4FuP0LSuR6LacXq8Uvd-43" value="uf142_update_rpt_host_metrics_datacenter" style="swimlane;startSize=20;horizontal=1;containerType=tree;newEdgeStyle={&quot;edgeStyle&quot;:&quot;elbowEdgeStyle&quot;,&quot;startArrow&quot;:&quot;none&quot;,&quot;endArrow&quot;:&quot;none&quot;};fillColor=#ffe6cc;strokeColor=#d79b00;" vertex="1" parent="1">
          <mxGeometry x="580" y="970" width="350" height="220" as="geometry" />
        </mxCell>
        <mxCell id="P4FuP0LSuR6LacXq8Uvd-44" value="ucc_vcenter.rpt_host_metrics" style="rounded=1;whiteSpace=wrap;html=1;fillColor=#e1d5e7;strokeColor=#9673a6;" vertex="1" parent="P4FuP0LSuR6LacXq8Uvd-43">
          <mxGeometry x="90" y="40" width="170" height="50" as="geometry" />
        </mxCell>
        <mxCell id="P4FuP0LSuR6LacXq8Uvd-45" value="ucc_vcenter.vcenter_datacenter" style="swimlane;fillColor=#d5e8d4;strokeColor=#82b366;" vertex="1" parent="P4FuP0LSuR6LacXq8Uvd-43">
          <mxGeometry x="37.5" y="120" width="275" height="90" as="geometry" />
        </mxCell>
        <mxCell id="P4FuP0LSuR6LacXq8Uvd-46" value="datacenter_name&lt;br&gt;datacenter_id" style="text;html=1;align=left;verticalAlign=middle;resizable=0;points=[];autosize=1;strokeColor=none;fillColor=none;" vertex="1" parent="P4FuP0LSuR6LacXq8Uvd-45">
          <mxGeometry y="40" width="110" height="30" as="geometry" />
        </mxCell>
        <mxCell id="P4FuP0LSuR6LacXq8Uvd-47" value="" style="endArrow=classic;html=1;rounded=0;entryX=0.5;entryY=1;entryDx=0;entryDy=0;" edge="1" parent="P4FuP0LSuR6LacXq8Uvd-43" target="P4FuP0LSuR6LacXq8Uvd-44">
          <mxGeometry width="50" height="50" relative="1" as="geometry">
            <mxPoint x="175" y="120" as="sourcePoint" />
            <mxPoint x="210" y="150" as="targetPoint" />
          </mxGeometry>
        </mxCell>
        <mxCell id="P4FuP0LSuR6LacXq8Uvd-48" value="" style="endArrow=classic;html=1;rounded=0;exitX=0.5;exitY=1;exitDx=0;exitDy=0;entryX=0.5;entryY=0;entryDx=0;entryDy=0;" edge="1" parent="1" source="P4FuP0LSuR6LacXq8Uvd-37" target="P4FuP0LSuR6LacXq8Uvd-43">
          <mxGeometry width="50" height="50" relative="1" as="geometry">
            <mxPoint x="420" y="1000" as="sourcePoint" />
            <mxPoint x="470" y="950" as="targetPoint" />
          </mxGeometry>
        </mxCell>
        <mxCell id="P4FuP0LSuR6LacXq8Uvd-49" value="uf150_update_rpt_host_metrics_storage" style="swimlane;startSize=20;horizontal=1;containerType=tree;newEdgeStyle={&quot;edgeStyle&quot;:&quot;elbowEdgeStyle&quot;,&quot;startArrow&quot;:&quot;none&quot;,&quot;endArrow&quot;:&quot;none&quot;};fillColor=#ffe6cc;strokeColor=#d79b00;" vertex="1" parent="1">
          <mxGeometry x="325.63" y="1280" width="858.75" height="350" as="geometry" />
        </mxCell>
        <mxCell id="P4FuP0LSuR6LacXq8Uvd-50" value="ucc_vcenter.rpt_host_metrics" style="rounded=1;whiteSpace=wrap;html=1;fillColor=#e1d5e7;strokeColor=#9673a6;" vertex="1" parent="P4FuP0LSuR6LacXq8Uvd-49">
          <mxGeometry x="90" y="40" width="170" height="50" as="geometry" />
        </mxCell>
        <mxCell id="P4FuP0LSuR6LacXq8Uvd-51" value="ucc_vcenter.&#xa;vcenter_vsan_physical_disk" style="swimlane;fillColor=#d5e8d4;strokeColor=#82b366;" vertex="1" parent="P4FuP0LSuR6LacXq8Uvd-49">
          <mxGeometry x="18.75" y="120" width="840" height="65" as="geometry" />
        </mxCell>
        <mxCell id="P4FuP0LSuR6LacXq8Uvd-52" value="collection_id&lt;br&gt;sum(vpd.block_size*vpd.blocks/1024.0^3)::decimal(38,4) as stg_total_gib&lt;br&gt;(sum(vpd.disk_used_capacity::decimal(38,4)/1024.0^3 ) + sum(vpd.block_size*vpd.blocks/1024.0^3)*co.overhead_percent)::decimal(38,4) as stg_used_gib" style="text;html=1;align=left;verticalAlign=middle;resizable=0;points=[];autosize=1;strokeColor=none;fillColor=none;" vertex="1" parent="P4FuP0LSuR6LacXq8Uvd-51">
          <mxGeometry y="15" width="840" height="50" as="geometry" />
        </mxCell>
        <mxCell id="P4FuP0LSuR6LacXq8Uvd-53" value="Exist Vsan" style="endArrow=classic;html=1;rounded=0;entryX=0.5;entryY=1;entryDx=0;entryDy=0;" edge="1" parent="P4FuP0LSuR6LacXq8Uvd-49" target="P4FuP0LSuR6LacXq8Uvd-50">
          <mxGeometry width="50" height="50" relative="1" as="geometry">
            <mxPoint x="175" y="120" as="sourcePoint" />
            <mxPoint x="210" y="150" as="targetPoint" />
            <Array as="points" />
          </mxGeometry>
        </mxCell>
        <mxCell id="P4FuP0LSuR6LacXq8Uvd-57" value="ucc_vcenter.&#xa;vcenter_vsan_efficiency&#xa;ucc_vcenter.vcenter_vsan_clusterusage" style="swimlane;fillColor=#d5e8d4;strokeColor=#82b366;startSize=40;" vertex="1" parent="P4FuP0LSuR6LacXq8Uvd-49">
          <mxGeometry x="283.75" y="220" width="310" height="120" as="geometry" />
        </mxCell>
        <mxCell id="P4FuP0LSuR6LacXq8Uvd-62" value="(vve.dedup_metadata_size*1.0/csu.total_capacity) as overhead_percent" style="whiteSpace=wrap;html=1;" vertex="1" parent="P4FuP0LSuR6LacXq8Uvd-57">
          <mxGeometry x="5" y="50" width="275" height="50" as="geometry" />
        </mxCell>
        <mxCell id="P4FuP0LSuR6LacXq8Uvd-59" value="" style="endArrow=classic;html=1;rounded=0;exitX=0.5;exitY=0;exitDx=0;exitDy=0;entryX=0.5;entryY=1;entryDx=0;entryDy=0;" edge="1" parent="P4FuP0LSuR6LacXq8Uvd-49" source="P4FuP0LSuR6LacXq8Uvd-57" target="P4FuP0LSuR6LacXq8Uvd-51">
          <mxGeometry width="50" height="50" relative="1" as="geometry">
            <mxPoint x="90" y="230" as="sourcePoint" />
            <mxPoint x="140" y="180" as="targetPoint" />
          </mxGeometry>
        </mxCell>
        <mxCell id="P4FuP0LSuR6LacXq8Uvd-54" value="" style="endArrow=classic;html=1;rounded=0;exitX=0.5;exitY=1;exitDx=0;exitDy=0;entryX=0.5;entryY=0;entryDx=0;entryDy=0;" edge="1" parent="1" target="P4FuP0LSuR6LacXq8Uvd-49">
          <mxGeometry width="50" height="50" relative="1" as="geometry">
            <mxPoint x="754.5" y="1190" as="sourcePoint" />
            <mxPoint x="754.5" y="1250" as="targetPoint" />
          </mxGeometry>
        </mxCell>
      </root>
    </mxGraphModel>
  </diagram>
</mxfile>
